<mxfile host="app.diagrams.net" modified="2023-07-11T06:15:15.337Z" agent="Mozilla/5.0 (Windows NT 10.0; Win64; x64) AppleWebKit/537.36 (KHTML, like Gecko) Chrome/114.0.0.0 Safari/537.36 Edg/114.0.1823.67" etag="9jDhwKNOF7qzNkype44q" version="21.5.2" type="device">
  <diagram id="prtHgNgQTEPvFCAcTncT" name="Page-1">
    <mxGraphModel dx="1065" dy="756" grid="1" gridSize="10" guides="1" tooltips="1" connect="1" arrows="1" fold="1" page="1" pageScale="1" pageWidth="827" pageHeight="1169" math="0" shadow="0">
      <root>
        <mxCell id="0" />
        <mxCell id="1" parent="0" />
        <mxCell id="geWDUHBHYifjoXsJH7w4-54" value="&lt;span style=&quot;font-size: 18px;&quot;&gt;数据流示意图&lt;/span&gt;" style="swimlane;whiteSpace=wrap;html=1;fillColor=#fff2cc;strokeColor=default;rounded=1;startSize=30;fontStyle=1" parent="1" vertex="1">
          <mxGeometry y="680" width="566" height="370" as="geometry" />
        </mxCell>
        <mxCell id="geWDUHBHYifjoXsJH7w4-122" value="" style="rounded=1;whiteSpace=wrap;html=1;fontSize=16;fillColor=#d5e8d4;strokeColor=none;fontStyle=1" parent="geWDUHBHYifjoXsJH7w4-54" vertex="1">
          <mxGeometry x="346.5" y="50" width="193.5" height="200" as="geometry" />
        </mxCell>
        <mxCell id="geWDUHBHYifjoXsJH7w4-123" value="" style="rounded=1;whiteSpace=wrap;html=1;fontSize=16;fillColor=#dae8fc;strokeColor=none;fontStyle=1" parent="geWDUHBHYifjoXsJH7w4-54" vertex="1">
          <mxGeometry x="346.25" y="190" width="193.75" height="160" as="geometry" />
        </mxCell>
        <mxCell id="geWDUHBHYifjoXsJH7w4-121" value="" style="rounded=1;whiteSpace=wrap;html=1;fontSize=16;fillColor=#e1d5e7;strokeColor=none;fontStyle=1" parent="geWDUHBHYifjoXsJH7w4-54" vertex="1">
          <mxGeometry x="20" y="200" width="300" height="150" as="geometry" />
        </mxCell>
        <mxCell id="geWDUHBHYifjoXsJH7w4-108" value="" style="rounded=1;whiteSpace=wrap;html=1;fontSize=16;fillColor=#ffe6cc;strokeColor=none;fontStyle=1" parent="geWDUHBHYifjoXsJH7w4-54" vertex="1">
          <mxGeometry x="20" y="60" width="300" height="130" as="geometry" />
        </mxCell>
        <mxCell id="geWDUHBHYifjoXsJH7w4-59" style="edgeStyle=none;curved=1;rounded=0;orthogonalLoop=1;jettySize=auto;html=1;exitX=0.5;exitY=1;exitDx=0;exitDy=0;entryX=0.5;entryY=0;entryDx=0;entryDy=0;fontSize=12;startSize=8;endSize=8;strokeColor=none;fontStyle=1" parent="geWDUHBHYifjoXsJH7w4-54" edge="1">
          <mxGeometry relative="1" as="geometry">
            <mxPoint x="365" y="370" as="sourcePoint" />
            <mxPoint x="364" y="400" as="targetPoint" />
          </mxGeometry>
        </mxCell>
        <mxCell id="geWDUHBHYifjoXsJH7w4-129" style="edgeStyle=none;curved=1;rounded=0;orthogonalLoop=1;jettySize=auto;html=1;exitX=1;exitY=0.5;exitDx=0;exitDy=0;entryX=0;entryY=0.5;entryDx=0;entryDy=0;fontSize=12;startSize=8;endSize=8;fontStyle=1" parent="geWDUHBHYifjoXsJH7w4-54" source="geWDUHBHYifjoXsJH7w4-93" target="geWDUHBHYifjoXsJH7w4-94" edge="1">
          <mxGeometry relative="1" as="geometry" />
        </mxCell>
        <mxCell id="geWDUHBHYifjoXsJH7w4-93" value="爬取数据" style="rounded=1;whiteSpace=wrap;html=1;fontSize=16;strokeColor=none;fontStyle=1" parent="geWDUHBHYifjoXsJH7w4-54" vertex="1">
          <mxGeometry x="33" y="130" width="120" height="45" as="geometry" />
        </mxCell>
        <mxCell id="geWDUHBHYifjoXsJH7w4-130" style="edgeStyle=none;curved=1;rounded=0;orthogonalLoop=1;jettySize=auto;html=1;exitX=1;exitY=0.5;exitDx=0;exitDy=0;entryX=0;entryY=0.5;entryDx=0;entryDy=0;fontSize=12;startSize=8;endSize=8;fontStyle=1" parent="geWDUHBHYifjoXsJH7w4-54" source="geWDUHBHYifjoXsJH7w4-94" target="geWDUHBHYifjoXsJH7w4-95" edge="1">
          <mxGeometry relative="1" as="geometry" />
        </mxCell>
        <mxCell id="geWDUHBHYifjoXsJH7w4-94" value="数据预处理" style="rounded=1;whiteSpace=wrap;html=1;fontSize=16;strokeColor=none;fontStyle=1" parent="geWDUHBHYifjoXsJH7w4-54" vertex="1">
          <mxGeometry x="190" y="130" width="120" height="45" as="geometry" />
        </mxCell>
        <mxCell id="geWDUHBHYifjoXsJH7w4-131" style="edgeStyle=none;curved=1;rounded=0;orthogonalLoop=1;jettySize=auto;html=1;exitX=0.5;exitY=1;exitDx=0;exitDy=0;entryX=0.5;entryY=0;entryDx=0;entryDy=0;fontSize=12;startSize=8;endSize=8;fontStyle=1" parent="geWDUHBHYifjoXsJH7w4-54" source="geWDUHBHYifjoXsJH7w4-95" target="geWDUHBHYifjoXsJH7w4-99" edge="1">
          <mxGeometry relative="1" as="geometry" />
        </mxCell>
        <mxCell id="geWDUHBHYifjoXsJH7w4-95" value="数据库存储" style="rounded=1;whiteSpace=wrap;html=1;fontSize=16;strokeColor=none;fontStyle=1" parent="geWDUHBHYifjoXsJH7w4-54" vertex="1">
          <mxGeometry x="373" y="130" width="120" height="45" as="geometry" />
        </mxCell>
        <mxCell id="geWDUHBHYifjoXsJH7w4-132" style="edgeStyle=none;curved=1;rounded=0;orthogonalLoop=1;jettySize=auto;html=1;exitX=1;exitY=0.5;exitDx=0;exitDy=0;entryX=0;entryY=0.5;entryDx=0;entryDy=0;fontSize=12;startSize=8;endSize=8;fontStyle=1" parent="geWDUHBHYifjoXsJH7w4-54" source="geWDUHBHYifjoXsJH7w4-97" target="geWDUHBHYifjoXsJH7w4-98" edge="1">
          <mxGeometry relative="1" as="geometry" />
        </mxCell>
        <mxCell id="geWDUHBHYifjoXsJH7w4-97" value="接收用户&lt;br&gt;输入数据" style="rounded=1;whiteSpace=wrap;html=1;fontSize=16;strokeColor=none;fontStyle=1" parent="geWDUHBHYifjoXsJH7w4-54" vertex="1">
          <mxGeometry x="33" y="215" width="120" height="45" as="geometry" />
        </mxCell>
        <mxCell id="geWDUHBHYifjoXsJH7w4-133" style="edgeStyle=none;curved=1;rounded=0;orthogonalLoop=1;jettySize=auto;html=1;exitX=1;exitY=0.5;exitDx=0;exitDy=0;fontSize=12;startSize=8;endSize=8;fontStyle=1" parent="geWDUHBHYifjoXsJH7w4-54" source="geWDUHBHYifjoXsJH7w4-98" target="geWDUHBHYifjoXsJH7w4-99" edge="1">
          <mxGeometry relative="1" as="geometry" />
        </mxCell>
        <mxCell id="geWDUHBHYifjoXsJH7w4-98" value="处理输入数据" style="rounded=1;whiteSpace=wrap;html=1;fontSize=16;strokeColor=none;fontStyle=1" parent="geWDUHBHYifjoXsJH7w4-54" vertex="1">
          <mxGeometry x="190" y="215" width="120" height="45" as="geometry" />
        </mxCell>
        <mxCell id="geWDUHBHYifjoXsJH7w4-134" style="edgeStyle=none;curved=1;rounded=0;orthogonalLoop=1;jettySize=auto;html=1;exitX=0.5;exitY=1;exitDx=0;exitDy=0;entryX=0.5;entryY=0;entryDx=0;entryDy=0;fontSize=12;startSize=8;endSize=8;fontStyle=1" parent="geWDUHBHYifjoXsJH7w4-54" source="geWDUHBHYifjoXsJH7w4-99" target="geWDUHBHYifjoXsJH7w4-100" edge="1">
          <mxGeometry relative="1" as="geometry" />
        </mxCell>
        <mxCell id="geWDUHBHYifjoXsJH7w4-99" value="数据库检索" style="rounded=1;whiteSpace=wrap;html=1;fontSize=16;strokeColor=none;fontStyle=1" parent="geWDUHBHYifjoXsJH7w4-54" vertex="1">
          <mxGeometry x="373" y="215" width="120" height="45" as="geometry" />
        </mxCell>
        <mxCell id="geWDUHBHYifjoXsJH7w4-136" style="edgeStyle=none;curved=1;rounded=0;orthogonalLoop=1;jettySize=auto;html=1;exitX=0;exitY=0.5;exitDx=0;exitDy=0;fontSize=12;startSize=8;endSize=8;fontStyle=1" parent="geWDUHBHYifjoXsJH7w4-54" source="geWDUHBHYifjoXsJH7w4-100" target="geWDUHBHYifjoXsJH7w4-101" edge="1">
          <mxGeometry relative="1" as="geometry" />
        </mxCell>
        <mxCell id="geWDUHBHYifjoXsJH7w4-100" value="处理检索数据" style="rounded=1;whiteSpace=wrap;html=1;fontSize=16;strokeColor=none;fontStyle=1" parent="geWDUHBHYifjoXsJH7w4-54" vertex="1">
          <mxGeometry x="373" y="292.5" width="120" height="45" as="geometry" />
        </mxCell>
        <mxCell id="geWDUHBHYifjoXsJH7w4-101" value="展示输出数据" style="rounded=1;whiteSpace=wrap;html=1;fontSize=16;strokeColor=none;fontStyle=1" parent="geWDUHBHYifjoXsJH7w4-54" vertex="1">
          <mxGeometry x="190" y="292.5" width="120" height="43.75" as="geometry" />
        </mxCell>
        <mxCell id="geWDUHBHYifjoXsJH7w4-102" style="edgeStyle=none;curved=1;rounded=0;orthogonalLoop=1;jettySize=auto;html=1;exitX=1;exitY=0.5;exitDx=0;exitDy=0;fontSize=12;startSize=8;endSize=8;strokeColor=none;fontStyle=1" parent="geWDUHBHYifjoXsJH7w4-54" source="geWDUHBHYifjoXsJH7w4-93" target="geWDUHBHYifjoXsJH7w4-93" edge="1">
          <mxGeometry relative="1" as="geometry" />
        </mxCell>
        <mxCell id="geWDUHBHYifjoXsJH7w4-126" value="爬虫" style="shape=ext;margin=3;double=1;whiteSpace=wrap;html=1;align=center;fontSize=16;fontStyle=1" parent="geWDUHBHYifjoXsJH7w4-54" vertex="1">
          <mxGeometry x="53" y="70" width="97" height="40" as="geometry" />
        </mxCell>
        <mxCell id="geWDUHBHYifjoXsJH7w4-127" value="前端" style="shape=ext;margin=3;double=1;whiteSpace=wrap;html=1;align=center;fontSize=16;fontStyle=1" parent="geWDUHBHYifjoXsJH7w4-54" vertex="1">
          <mxGeometry x="46" y="290" width="94" height="42.5" as="geometry" />
        </mxCell>
        <mxCell id="geWDUHBHYifjoXsJH7w4-128" value="后端 &amp;amp; 数据库" style="shape=ext;margin=3;double=1;whiteSpace=wrap;html=1;align=center;fontSize=16;fontStyle=1" parent="geWDUHBHYifjoXsJH7w4-54" vertex="1">
          <mxGeometry x="363" y="65" width="140" height="50" as="geometry" />
        </mxCell>
        <mxCell id="yNaye4qHIhidBEd1_P4E-1" value="&lt;font style=&quot;font-size: 18px;&quot;&gt;系统架构图&lt;/font&gt;" style="swimlane;whiteSpace=wrap;html=1;fillColor=#fff2cc;strokeColor=default;rounded=1;startSize=30;" parent="1" vertex="1">
          <mxGeometry x="50" y="60" width="632" height="500" as="geometry" />
        </mxCell>
        <mxCell id="yNaye4qHIhidBEd1_P4E-2" value="" style="shape=process;whiteSpace=wrap;html=1;backgroundOutline=1;fillColor=#e1d5e7;strokeColor=none;rounded=1;" parent="yNaye4qHIhidBEd1_P4E-1" vertex="1">
          <mxGeometry x="120" y="40" width="491" height="90" as="geometry" />
        </mxCell>
        <mxCell id="yNaye4qHIhidBEd1_P4E-37" style="edgeStyle=orthogonalEdgeStyle;rounded=0;orthogonalLoop=1;jettySize=auto;html=1;exitX=0.5;exitY=0;exitDx=0;exitDy=0;entryX=0.5;entryY=1;entryDx=0;entryDy=0;startArrow=classic;startFill=1;" parent="yNaye4qHIhidBEd1_P4E-1" source="yNaye4qHIhidBEd1_P4E-3" target="yNaye4qHIhidBEd1_P4E-2" edge="1">
          <mxGeometry relative="1" as="geometry" />
        </mxCell>
        <mxCell id="yNaye4qHIhidBEd1_P4E-3" value="" style="shape=process;whiteSpace=wrap;html=1;backgroundOutline=1;fillColor=#dae8fc;strokeColor=none;rounded=1;" parent="yNaye4qHIhidBEd1_P4E-1" vertex="1">
          <mxGeometry x="120" y="160" width="490.5" height="90" as="geometry" />
        </mxCell>
        <mxCell id="yNaye4qHIhidBEd1_P4E-35" style="edgeStyle=orthogonalEdgeStyle;rounded=0;orthogonalLoop=1;jettySize=auto;html=1;exitX=0.5;exitY=0;exitDx=0;exitDy=0;entryX=0.5;entryY=1;entryDx=0;entryDy=0;startArrow=classic;startFill=1;" parent="yNaye4qHIhidBEd1_P4E-1" source="yNaye4qHIhidBEd1_P4E-4" target="yNaye4qHIhidBEd1_P4E-3" edge="1">
          <mxGeometry relative="1" as="geometry" />
        </mxCell>
        <mxCell id="geWDUHBHYifjoXsJH7w4-44" style="edgeStyle=none;curved=1;rounded=0;orthogonalLoop=1;jettySize=auto;html=1;exitX=0.5;exitY=1;exitDx=0;exitDy=0;entryX=0.5;entryY=0;entryDx=0;entryDy=0;fontSize=12;startSize=8;endSize=8;strokeColor=none;" parent="yNaye4qHIhidBEd1_P4E-1" source="yNaye4qHIhidBEd1_P4E-4" target="yNaye4qHIhidBEd1_P4E-5" edge="1">
          <mxGeometry relative="1" as="geometry" />
        </mxCell>
        <mxCell id="yNaye4qHIhidBEd1_P4E-4" value="" style="shape=process;whiteSpace=wrap;html=1;backgroundOutline=1;fillColor=#d5e8d4;strokeColor=none;rounded=1;" parent="yNaye4qHIhidBEd1_P4E-1" vertex="1">
          <mxGeometry x="120" y="280" width="490" height="90" as="geometry" />
        </mxCell>
        <mxCell id="geWDUHBHYifjoXsJH7w4-45" style="edgeStyle=none;curved=1;rounded=0;orthogonalLoop=1;jettySize=auto;html=1;exitX=0.5;exitY=0;exitDx=0;exitDy=0;entryX=0.5;entryY=1;entryDx=0;entryDy=0;fontSize=12;startSize=8;endSize=8;strokeColor=default;startArrow=classic;startFill=1;" parent="yNaye4qHIhidBEd1_P4E-1" source="yNaye4qHIhidBEd1_P4E-5" target="yNaye4qHIhidBEd1_P4E-4" edge="1">
          <mxGeometry relative="1" as="geometry" />
        </mxCell>
        <mxCell id="yNaye4qHIhidBEd1_P4E-5" value="" style="shape=process;whiteSpace=wrap;html=1;backgroundOutline=1;fillColor=#ffe6cc;strokeColor=none;rounded=1;" parent="yNaye4qHIhidBEd1_P4E-1" vertex="1">
          <mxGeometry x="119" y="400" width="490" height="90" as="geometry" />
        </mxCell>
        <mxCell id="yNaye4qHIhidBEd1_P4E-6" value="&lt;b&gt;&lt;font style=&quot;font-size: 16px;&quot;&gt;爬虫&lt;/font&gt;&lt;/b&gt;" style="shape=process;whiteSpace=wrap;html=1;backgroundOutline=1;fillColor=#ffe6cc;strokeColor=none;rounded=1;" parent="yNaye4qHIhidBEd1_P4E-1" vertex="1">
          <mxGeometry x="11" y="400" width="89" height="90" as="geometry" />
        </mxCell>
        <mxCell id="yNaye4qHIhidBEd1_P4E-7" value="&lt;b&gt;&lt;font style=&quot;font-size: 16px;&quot;&gt;数据库&lt;/font&gt;&lt;/b&gt;" style="shape=process;whiteSpace=wrap;html=1;backgroundOutline=1;fillColor=#d5e8d4;strokeColor=none;rounded=1;" parent="yNaye4qHIhidBEd1_P4E-1" vertex="1">
          <mxGeometry x="11" y="280" width="89" height="90" as="geometry" />
        </mxCell>
        <mxCell id="yNaye4qHIhidBEd1_P4E-8" value="&lt;b&gt;&lt;font style=&quot;font-size: 16px;&quot;&gt;后端&lt;/font&gt;&lt;/b&gt;" style="shape=process;whiteSpace=wrap;html=1;backgroundOutline=1;fillColor=#dae8fc;strokeColor=none;rounded=1;" parent="yNaye4qHIhidBEd1_P4E-1" vertex="1">
          <mxGeometry x="11" y="160" width="89" height="90" as="geometry" />
        </mxCell>
        <mxCell id="yNaye4qHIhidBEd1_P4E-9" value="&lt;b&gt;&lt;font style=&quot;font-size: 16px;&quot;&gt;前端&lt;/font&gt;&lt;/b&gt;" style="shape=process;whiteSpace=wrap;html=1;backgroundOutline=1;fillColor=#e1d5e7;strokeColor=none;rounded=1;" parent="yNaye4qHIhidBEd1_P4E-1" vertex="1">
          <mxGeometry x="11" y="40" width="89" height="90" as="geometry" />
        </mxCell>
        <mxCell id="yNaye4qHIhidBEd1_P4E-46" value="&lt;b&gt;&lt;font style=&quot;font-size: 12px;&quot;&gt;QSS&lt;/font&gt;&lt;/b&gt;" style="rounded=1;whiteSpace=wrap;html=1;strokeColor=none;" parent="yNaye4qHIhidBEd1_P4E-1" vertex="1">
          <mxGeometry x="134" y="90" width="137" height="27.5" as="geometry" />
        </mxCell>
        <mxCell id="yNaye4qHIhidBEd1_P4E-50" style="edgeStyle=orthogonalEdgeStyle;rounded=0;orthogonalLoop=1;jettySize=auto;html=1;exitX=0;exitY=0.5;exitDx=0;exitDy=0;entryX=1;entryY=0.5;entryDx=0;entryDy=0;" parent="yNaye4qHIhidBEd1_P4E-1" source="yNaye4qHIhidBEd1_P4E-47" target="yNaye4qHIhidBEd1_P4E-46" edge="1">
          <mxGeometry relative="1" as="geometry" />
        </mxCell>
        <mxCell id="yNaye4qHIhidBEd1_P4E-47" value="&lt;b&gt;&lt;font style=&quot;font-size: 12px;&quot;&gt;QT&lt;/font&gt;&lt;/b&gt;" style="rounded=1;whiteSpace=wrap;html=1;strokeColor=none;" parent="yNaye4qHIhidBEd1_P4E-1" vertex="1">
          <mxGeometry x="296.5" y="90" width="137" height="27.5" as="geometry" />
        </mxCell>
        <mxCell id="yNaye4qHIhidBEd1_P4E-49" style="edgeStyle=orthogonalEdgeStyle;rounded=0;orthogonalLoop=1;jettySize=auto;html=1;exitX=0;exitY=0.5;exitDx=0;exitDy=0;entryX=1;entryY=0.5;entryDx=0;entryDy=0;" parent="yNaye4qHIhidBEd1_P4E-1" source="yNaye4qHIhidBEd1_P4E-48" target="yNaye4qHIhidBEd1_P4E-47" edge="1">
          <mxGeometry relative="1" as="geometry" />
        </mxCell>
        <mxCell id="yNaye4qHIhidBEd1_P4E-48" value="&lt;b&gt;&lt;font style=&quot;font-size: 12px;&quot;&gt;QT DESIGNER&lt;/font&gt;&lt;/b&gt;" style="rounded=1;whiteSpace=wrap;html=1;strokeColor=none;" parent="yNaye4qHIhidBEd1_P4E-1" vertex="1">
          <mxGeometry x="462" y="90" width="137" height="27.5" as="geometry" />
        </mxCell>
        <mxCell id="geWDUHBHYifjoXsJH7w4-34" style="edgeStyle=none;curved=1;rounded=0;orthogonalLoop=1;jettySize=auto;html=1;exitX=1;exitY=0.5;exitDx=0;exitDy=0;entryX=0;entryY=0.5;entryDx=0;entryDy=0;fontSize=12;startSize=8;endSize=8;" parent="yNaye4qHIhidBEd1_P4E-1" source="geWDUHBHYifjoXsJH7w4-2" target="geWDUHBHYifjoXsJH7w4-5" edge="1">
          <mxGeometry relative="1" as="geometry" />
        </mxCell>
        <mxCell id="geWDUHBHYifjoXsJH7w4-2" value="&lt;b&gt;&lt;font style=&quot;font-size: 12px;&quot;&gt;PYMySql&lt;/font&gt;&lt;/b&gt;" style="rounded=1;whiteSpace=wrap;html=1;fontSize=16;fillColor=default;strokeColor=none;" parent="yNaye4qHIhidBEd1_P4E-1" vertex="1">
          <mxGeometry x="135" y="210" width="205" height="30" as="geometry" />
        </mxCell>
        <mxCell id="geWDUHBHYifjoXsJH7w4-5" value="&lt;div style=&quot;line-height: 19px;&quot;&gt;&lt;span style=&quot;background-color: rgb(255, 255, 255);&quot;&gt;&lt;font size=&quot;1&quot; style=&quot;&quot;&gt;&lt;b style=&quot;&quot;&gt;Thefuzz&lt;/b&gt;&lt;/font&gt;&lt;/span&gt;&lt;/div&gt;" style="rounded=1;whiteSpace=wrap;html=1;fontSize=16;fillColor=default;strokeColor=none;" parent="yNaye4qHIhidBEd1_P4E-1" vertex="1">
          <mxGeometry x="394" y="210" width="206" height="30" as="geometry" />
        </mxCell>
        <mxCell id="geWDUHBHYifjoXsJH7w4-11" value="&lt;b style=&quot;&quot;&gt;&lt;font style=&quot;font-size: 12px;&quot;&gt;前端美化&lt;/font&gt;&lt;/b&gt;" style="rounded=1;whiteSpace=wrap;html=1;strokeColor=none;" parent="yNaye4qHIhidBEd1_P4E-1" vertex="1">
          <mxGeometry x="135" y="50" width="137" height="27.5" as="geometry" />
        </mxCell>
        <mxCell id="geWDUHBHYifjoXsJH7w4-12" value="&lt;b&gt;前端构建&lt;/b&gt;" style="rounded=1;whiteSpace=wrap;html=1;strokeColor=none;" parent="yNaye4qHIhidBEd1_P4E-1" vertex="1">
          <mxGeometry x="297" y="50" width="137" height="27.5" as="geometry" />
        </mxCell>
        <mxCell id="geWDUHBHYifjoXsJH7w4-13" value="&lt;b&gt;前端设计&lt;br&gt;&lt;/b&gt;" style="rounded=1;whiteSpace=wrap;html=1;strokeColor=none;" parent="yNaye4qHIhidBEd1_P4E-1" vertex="1">
          <mxGeometry x="462" y="50" width="137" height="27.5" as="geometry" />
        </mxCell>
        <mxCell id="geWDUHBHYifjoXsJH7w4-35" value="&lt;span style=&quot;font-size: 12px;&quot;&gt;&lt;b&gt;数据检索&lt;/b&gt;&lt;/span&gt;" style="rounded=1;whiteSpace=wrap;html=1;fontSize=16;fillColor=default;strokeColor=none;" parent="yNaye4qHIhidBEd1_P4E-1" vertex="1">
          <mxGeometry x="134" y="170" width="205" height="30" as="geometry" />
        </mxCell>
        <mxCell id="geWDUHBHYifjoXsJH7w4-36" value="&lt;span style=&quot;font-size: 12px;&quot;&gt;&lt;b&gt;数据处理&lt;/b&gt;&lt;/span&gt;" style="rounded=1;whiteSpace=wrap;html=1;fontSize=16;fillColor=default;strokeColor=none;" parent="yNaye4qHIhidBEd1_P4E-1" vertex="1">
          <mxGeometry x="394" y="170" width="205" height="30" as="geometry" />
        </mxCell>
        <mxCell id="geWDUHBHYifjoXsJH7w4-39" value="&lt;span style=&quot;font-size: 12px;&quot;&gt;&lt;b&gt;数据库&lt;/b&gt;&lt;/span&gt;" style="rounded=1;whiteSpace=wrap;html=1;fontSize=16;fillColor=default;strokeColor=none;" parent="yNaye4qHIhidBEd1_P4E-1" vertex="1">
          <mxGeometry x="135" y="290" width="205" height="30" as="geometry" />
        </mxCell>
        <mxCell id="geWDUHBHYifjoXsJH7w4-43" style="edgeStyle=none;curved=1;rounded=0;orthogonalLoop=1;jettySize=auto;html=1;exitX=1;exitY=0.5;exitDx=0;exitDy=0;entryX=0;entryY=0.5;entryDx=0;entryDy=0;fontSize=12;startSize=8;endSize=8;startArrow=classic;startFill=1;" parent="yNaye4qHIhidBEd1_P4E-1" source="geWDUHBHYifjoXsJH7w4-40" target="geWDUHBHYifjoXsJH7w4-41" edge="1">
          <mxGeometry relative="1" as="geometry" />
        </mxCell>
        <mxCell id="geWDUHBHYifjoXsJH7w4-40" value="&lt;b&gt;&lt;font style=&quot;font-size: 12px;&quot;&gt;MySql&lt;/font&gt;&lt;/b&gt;" style="rounded=1;whiteSpace=wrap;html=1;fontSize=16;fillColor=default;strokeColor=none;" parent="yNaye4qHIhidBEd1_P4E-1" vertex="1">
          <mxGeometry x="135" y="330" width="205" height="30" as="geometry" />
        </mxCell>
        <mxCell id="geWDUHBHYifjoXsJH7w4-41" value="&lt;b&gt;&lt;font style=&quot;font-size: 12px;&quot;&gt;PYMySql&lt;/font&gt;&lt;/b&gt;" style="rounded=1;whiteSpace=wrap;html=1;fontSize=16;fillColor=default;strokeColor=none;" parent="yNaye4qHIhidBEd1_P4E-1" vertex="1">
          <mxGeometry x="395" y="330" width="205" height="30" as="geometry" />
        </mxCell>
        <mxCell id="geWDUHBHYifjoXsJH7w4-42" value="&lt;span style=&quot;font-size: 12px;&quot;&gt;&lt;b&gt;增删查改&lt;/b&gt;&lt;/span&gt;" style="rounded=1;whiteSpace=wrap;html=1;fontSize=16;fillColor=default;strokeColor=none;" parent="yNaye4qHIhidBEd1_P4E-1" vertex="1">
          <mxGeometry x="394" y="290" width="205" height="30" as="geometry" />
        </mxCell>
        <mxCell id="geWDUHBHYifjoXsJH7w4-50" style="edgeStyle=none;curved=1;rounded=0;orthogonalLoop=1;jettySize=auto;html=1;exitX=1;exitY=0.5;exitDx=0;exitDy=0;fontSize=12;startSize=8;endSize=8;" parent="yNaye4qHIhidBEd1_P4E-1" source="geWDUHBHYifjoXsJH7w4-46" target="geWDUHBHYifjoXsJH7w4-48" edge="1">
          <mxGeometry relative="1" as="geometry" />
        </mxCell>
        <mxCell id="geWDUHBHYifjoXsJH7w4-46" value="&lt;div style=&quot;line-height: 19px;&quot;&gt;&lt;span style=&quot;background-color: rgb(255, 255, 255);&quot;&gt;&lt;b style=&quot;&quot;&gt;&lt;font style=&quot;font-size: 12px;&quot;&gt;Requests&lt;/font&gt;&lt;/b&gt;&lt;/span&gt;&lt;/div&gt;" style="rounded=1;whiteSpace=wrap;html=1;fontSize=16;fillColor=default;strokeColor=none;" parent="yNaye4qHIhidBEd1_P4E-1" vertex="1">
          <mxGeometry x="130" y="450" width="140" height="30" as="geometry" />
        </mxCell>
        <mxCell id="geWDUHBHYifjoXsJH7w4-47" value="&lt;div style=&quot;font-size: 14px; line-height: 19px;&quot;&gt;&lt;span style=&quot;background-color: rgb(255, 255, 255);&quot;&gt;&lt;b style=&quot;font-size: 12px;&quot;&gt;发送请求&lt;/b&gt;&lt;/span&gt;&lt;/div&gt;" style="rounded=1;whiteSpace=wrap;html=1;fontSize=16;fillColor=default;strokeColor=none;" parent="yNaye4qHIhidBEd1_P4E-1" vertex="1">
          <mxGeometry x="131" y="410" width="140" height="30" as="geometry" />
        </mxCell>
        <mxCell id="geWDUHBHYifjoXsJH7w4-52" style="edgeStyle=none;curved=1;rounded=0;orthogonalLoop=1;jettySize=auto;html=1;exitX=1;exitY=0.5;exitDx=0;exitDy=0;fontSize=12;startSize=8;endSize=8;" parent="yNaye4qHIhidBEd1_P4E-1" source="geWDUHBHYifjoXsJH7w4-48" target="geWDUHBHYifjoXsJH7w4-51" edge="1">
          <mxGeometry relative="1" as="geometry" />
        </mxCell>
        <mxCell id="geWDUHBHYifjoXsJH7w4-48" value="&lt;div style=&quot;line-height: 19px;&quot;&gt;&lt;span style=&quot;font-size: 12px; background-color: rgb(255, 255, 255);&quot;&gt;&lt;b&gt;Json&lt;/b&gt;&lt;/span&gt;&lt;/div&gt;" style="rounded=1;whiteSpace=wrap;html=1;fontSize=16;fillColor=default;strokeColor=none;" parent="yNaye4qHIhidBEd1_P4E-1" vertex="1">
          <mxGeometry x="294" y="450" width="140" height="30" as="geometry" />
        </mxCell>
        <mxCell id="geWDUHBHYifjoXsJH7w4-49" value="&lt;div style=&quot;line-height: 19px;&quot;&gt;&lt;span style=&quot;font-size: 12px; background-color: rgb(255, 255, 255);&quot;&gt;&lt;b&gt;处理信息&lt;/b&gt;&lt;/span&gt;&lt;/div&gt;" style="rounded=1;whiteSpace=wrap;html=1;fontSize=16;fillColor=default;strokeColor=none;" parent="yNaye4qHIhidBEd1_P4E-1" vertex="1">
          <mxGeometry x="294" y="410" width="140" height="30" as="geometry" />
        </mxCell>
        <mxCell id="geWDUHBHYifjoXsJH7w4-51" value="&lt;div style=&quot;line-height: 19px;&quot;&gt;&lt;b style=&quot;border-color: var(--border-color);&quot;&gt;&lt;font style=&quot;border-color: var(--border-color); font-size: 12px;&quot;&gt;PYMySql&lt;/font&gt;&lt;/b&gt;&lt;br&gt;&lt;/div&gt;" style="rounded=1;whiteSpace=wrap;html=1;fontSize=16;fillColor=default;strokeColor=none;" parent="yNaye4qHIhidBEd1_P4E-1" vertex="1">
          <mxGeometry x="459" y="450" width="140" height="30" as="geometry" />
        </mxCell>
        <mxCell id="geWDUHBHYifjoXsJH7w4-53" value="&lt;div style=&quot;line-height: 19px;&quot;&gt;&lt;span style=&quot;font-size: 12px; background-color: rgb(255, 255, 255);&quot;&gt;&lt;b&gt;信息存储&lt;/b&gt;&lt;/span&gt;&lt;/div&gt;" style="rounded=1;whiteSpace=wrap;html=1;fontSize=16;fillColor=default;strokeColor=none;" parent="yNaye4qHIhidBEd1_P4E-1" vertex="1">
          <mxGeometry x="459" y="410" width="140" height="30" as="geometry" />
        </mxCell>
      </root>
    </mxGraphModel>
  </diagram>
</mxfile>
